<svg width="46" height="46" viewBox="0 0 46 46" fill="none" xmlns="http://www.w3.org/2000/svg">
<g id="cart-variant 1">
<path id="Vector" d="M36.4167 38.3333C36.4167 40.4608 34.7109 42.1667 32.5834 42.1667C30.4559 42.1667 28.75 40.4417 28.75 38.3333C28.75 36.2058 30.4559 34.5 32.5834 34.5C34.7109 34.5 36.4167 36.225 36.4167 38.3333ZM13.4167 34.5C11.2892 34.5 9.58335 36.2058 9.58335 38.3333C9.58335 40.4417 11.2892 42.1667 13.4167 42.1667C15.5442 42.1667 17.25 40.4608 17.25 38.3333C17.25 36.2058 15.5442 34.5 13.4167 34.5ZM13.8 28.0408L13.7425 28.2708C13.7425 28.5392 13.9534 28.75 14.2217 28.75H36.4167V32.5833H13.4167C11.2892 32.5833 9.58335 30.8583 9.58335 28.75C9.58335 28.0792 9.75585 27.4467 10.0434 26.91L12.65 22.2142L5.75002 7.66668H1.91669V3.83334H8.18419L9.98585 7.66668H38.3334C39.3875 7.66668 40.25 8.52918 40.25 9.58334C40.25 9.90918 40.1542 10.235 40.02 10.5417L33.1584 22.9425C32.5067 24.1117 31.2417 24.9167 29.8042 24.9167H15.525L13.8 28.0408ZM16.2917 21.0833H19.1667V17.25H14.49L16.2917 21.0833ZM21.0834 17.25V21.0833H26.8334V17.25H21.0834ZM26.8334 15.3333V11.5H21.0834V15.3333H26.8334ZM32.7942 17.25H28.75V21.0833H30.6667L32.7942 17.25ZM35.995 11.5H28.75V15.3333H33.8675L35.995 11.5ZM11.7684 11.5L13.57 15.3333H19.1667V11.5H11.7684Z" fill="white"/>
</g>
</svg>
